# xmcd
#
# Track frame offsets: 
#        150
#        21663
#        38403
#        57005
#        74548
#        93504
#        108617
#        127524
#        144670
#        160655
#        178391
#        193680
#        212545
#        235660
#        249164
#        267965
#        285687
#        307734
#        325583
#        342441
#
# Disc length: 4795 seconds
#
# Revision: 0
# Processed by: cddbd v1.5.1PL0 Copyright (c) Steve Scherf et al.
# Submitted via: ExactAudioCopy v0.95a3
#
DISCID=1812b914
DTITLE=Various Artist - Люби Меня. Выпуск 10
DYEAR=2000
DGENRE=Pop
TTITLE0=Алла Пугачёва - Непогода
TTITLE1=Валерий Леонтьев - Если Ты Придёшь
TTITLE2=Р.В.С.Н. - Когда В Безмолвии Ночном
TTITLE3=Алла Горбачёва - Crazy
TTITLE4=В. Цветаев - Анжелика
TTITLE5=Диана Гурцкая - Есть Ли Любовь На Свете
TTITLE6=В. Лесовская - 9 1-2 Недель
TTITLE7=Юлиан - Пуля
TTITLE8=Близнецы - Братик Мой
TTITLE9=Балаган Лимитед - Зима
TTITLE10=Александр Иванов - Мотив Последней Песни
TTITLE11=Алсу - Свет В Твоём Окне
TTITLE12=Ночной Патруль - Одиночество
TTITLE13=Жанна Агузарова - К Тебе Пришла Любовь
TTITLE14=Дмитрий Маликов - Она
TTITLE15=Класс - До Рассвета
TTITLE16=Данко - Так Не Бывает
TTITLE17=Диана Гурцкая - На Прощание
TTITLE18=Владимир Кузьмин - Если Б Была Зима
TTITLE19=Кристина Орбакайте - 10 Вечеров
EXTD=
EXTT0=
EXTT1=
EXTT2=
EXTT3=
EXTT4=
EXTT5=
EXTT6=
EXTT7=
EXTT8=
EXTT9=
EXTT10=
EXTT11=
EXTT12=
EXTT13=
EXTT14=
EXTT15=
EXTT16=
EXTT17=
EXTT18=
EXTT19=
PLAYORDER=
